<?xml version="1.0" encoding="UTF-8"?>
<svg aria-hidden="true" width="100pt" height="100pt" version="1.1" viewBox="0 0 100 100" xmlns="http://www.w3.org/2000/svg">
 <path d="m38.195 2.7773h2.9531v25.086h-2.9531z"/>
 <path d="m66.234 30.816h-32.465v4.4258h32.465z"/>
 <path d="m51.586 63.727-1.5859-3.2148-1.5859 3.2148c-0.21484 0.4375-0.62891 0.73828-1.1094 0.80859l-3.5469 0.51562 2.5664 2.5c0.34766 0.33984 0.50781 0.82812 0.42578 1.3047l-0.60547 3.5312c4.8281-2.4492 2.8828-2.4492 7.7188 0l-0.60547-3.5312c-0.082031-0.48047 0.078126-0.96875 0.42578-1.3047l2.5664-2.5-3.5469-0.51562c-0.48828-0.070312-0.90234-0.37109-1.1172-0.80859z"/>
 <path d="m58.855 2.7773h2.9531v25.086h-2.9531z"/>
 <path d="m44.098 2.7773h11.805v25.086h-11.805z"/>
 <path d="m50 38.195c-16.273 0-29.516 13.238-29.516 29.516 0 16.27 13.242 29.512 29.516 29.512s29.516-13.238 29.516-29.516c0-16.273-13.242-29.512-29.516-29.512zm21.73 35.898 0.80469 3.3828c0.5 2.1094-0.73438 4.2461-2.8125 4.8672l-3.3281 0.99219c-0.37109 0.10937-0.65625 0.39844-0.76953 0.76562l-0.99219 3.3281c-0.61719 2.0781-2.7578 3.3164-4.8672 2.8125l-3.3828-0.80469c-0.375-0.089844-0.76562 0.015625-1.0469 0.28125l-2.5312 2.3867c-1.5742 1.4844-4.043 1.4844-5.6172 0l-2.5312-2.3867c-0.28125-0.26562-0.67188-0.36719-1.0469-0.28125l-3.3828 0.80469c-2.1094 0.5-4.2461-0.73438-4.8672-2.8125l-0.99219-3.3281c-0.10938-0.37109-0.39844-0.65625-0.76563-0.76953l-3.3281-0.99219c-2.0781-0.61719-3.3125-2.7578-2.8125-4.8672l0.80469-3.3828c0.089844-0.375-0.015625-0.76562-0.28125-1.0469l-2.3867-2.5312c-1.4844-1.5742-1.4844-4.043 0-5.6172l2.3867-2.5312c0.26562-0.28125 0.36719-0.67188 0.28125-1.0469l-0.80469-3.3828c-0.5-2.1094 0.73437-4.2461 2.8125-4.8672l3.3281-0.99219c0.37109-0.10938 0.65625-0.39844 0.76953-0.76562l0.99219-3.3281c0.61719-2.0781 2.7578-3.3164 4.8672-2.8125l3.3828 0.80469c0.375 0.089844 0.76562-0.015625 1.0469-0.28125l2.5312-2.3867c1.5742-1.4844 4.043-1.4844 5.6172 0l2.5312 2.3867c0.28125 0.26562 0.67188 0.36719 1.0469 0.28125l3.3828-0.80469c2.1094-0.50391 4.2461 0.73438 4.8672 2.8125l0.99219 3.3281c0.10938 0.37109 0.39844 0.65625 0.76562 0.76953l3.3281 0.99219c2.0781 0.61719 3.3125 2.7578 2.8125 4.8672l-0.80469 3.3828c-0.089844 0.375 0.015625 0.76563 0.28125 1.0469l2.3867 2.5312c1.4844 1.5742 1.4844 4.043 0 5.6172l-2.3867 2.5312c-0.26562 0.28125-0.36719 0.67188-0.28125 1.0469z"/>
 <path d="m72.254 66.926-2.3867-2.5312c-0.94922-1.0039-1.3242-2.4102-1.0039-3.7539l0.80469-3.3828c0.14062-0.58984-0.20312-1.1836-0.78516-1.3555l-3.3281-0.99219c-1.3281-0.39453-2.3594-1.4258-2.7539-2.7539l-0.99219-3.3281c-0.17188-0.57812-0.76953-0.92188-1.3555-0.78516l-3.3828 0.80469c-1.3438 0.32031-2.75-0.054687-3.7539-1.0039l-2.5312-2.3867c-0.4375-0.41406-1.125-0.41406-1.5664 0l-2.5312 2.3867c-1.0039 0.94922-2.4062 1.3242-3.7539 1.0039l-3.3828-0.80469c-0.58984-0.14062-1.1836 0.20312-1.3555 0.78516l-0.99219 3.3281c-0.39453 1.3281-1.4258 2.3594-2.7539 2.7539l-3.3281 0.99219c-0.57812 0.17188-0.92578 0.76953-0.78516 1.3555l0.80469 3.3828c0.32031 1.3438-0.054687 2.75-1.0039 3.7539l-2.3867 2.5312c-0.41406 0.4375-0.41406 1.125 0 1.5664l2.3867 2.5312c0.94922 1.0039 1.3242 2.4102 1.0039 3.7539l-0.80469 3.3828c-0.14063 0.58984 0.20312 1.1836 0.78516 1.3555l3.3281 0.99219c1.3281 0.39453 2.3594 1.4258 2.7539 2.7539l0.99219 3.3281c0.17188 0.57812 0.76953 0.92188 1.3555 0.78516l3.3828-0.80469c1.3398-0.31641 2.7422 0.050782 3.7539 1.0039l2.5312 2.3867c0.4375 0.41406 1.125 0.41406 1.5664 0l2.5312-2.3867c1.0039-0.94922 2.4062-1.3242 3.7539-1.0039l3.3828 0.80469c0.58984 0.14062 1.1836-0.20312 1.3555-0.78516l0.99219-3.3281c0.39453-1.3281 1.4258-2.3594 2.7539-2.7539l3.3281-0.99219c0.57813-0.17188 0.92578-0.76953 0.78516-1.3555l-0.80469-3.3828c-0.32031-1.3438 0.054688-2.75 1.0039-3.7539l2.3867-2.5312c0.41406-0.44141 0.41406-1.1289 0-1.5664zm-11.809-1.8516-4.1523 4.0469 0.98047 5.7148c0.20703 1.207-1.0664 2.1211-2.1406 1.5547l-5.1328-2.6953-5.1328 2.6992c-1.082 0.56641-2.3477-0.35156-2.1406-1.5547l0.98047-5.7148-4.1523-4.0469c-0.875-0.85156-0.39063-2.3398 0.81641-2.5156l5.7383-0.83203 2.5664-5.1992c0.53906-1.0938 2.1055-1.0938 2.6484 0l2.5664 5.1992 5.7383 0.83203c1.207 0.17188 1.6914 1.6602 0.81641 2.5117z"/>
</svg>
